<mxfile host="app.diagrams.net" modified="2024-03-25T15:33:04.526Z" agent="Mozilla/5.0 (Macintosh; Intel Mac OS X 10_15_7) AppleWebKit/537.36 (KHTML, like Gecko) Chrome/123.0.0.0 Safari/537.36" etag="dfgSXaPLUX8g75NIarh1" version="24.0.7" type="google">
  <diagram name="Page-1" id="uMldqZcaAXLupboYLbbF">
    <mxGraphModel grid="1" page="1" gridSize="10" guides="1" tooltips="1" connect="1" arrows="1" fold="1" pageScale="1" pageWidth="827" pageHeight="1169" math="0" shadow="0">
      <root>
        <mxCell id="0" />
        <mxCell id="1" parent="0" />
        <mxCell id="lqSc25_AbHQCDXwH0Ops-1" value="Service" style="swimlane;fontStyle=0;childLayout=stackLayout;horizontal=1;startSize=26;fillColor=none;horizontalStack=0;resizeParent=1;resizeParentMax=0;resizeLast=0;collapsible=1;marginBottom=0;whiteSpace=wrap;html=1;" vertex="1" parent="1">
          <mxGeometry x="480" y="-80" width="200" height="80" as="geometry" />
        </mxCell>
        <mxCell id="lqSc25_AbHQCDXwH0Ops-2" value="&lt;u&gt;-id_Service&lt;/u&gt;&amp;nbsp;: Auto_Increment&lt;div&gt;&lt;br&gt;&lt;/div&gt;" style="text;strokeColor=none;fillColor=none;align=left;verticalAlign=top;spacingLeft=4;spacingRight=4;overflow=hidden;rotatable=0;points=[[0,0.5],[1,0.5]];portConstraint=eastwest;whiteSpace=wrap;html=1;" vertex="1" parent="lqSc25_AbHQCDXwH0Ops-1">
          <mxGeometry y="26" width="200" height="26" as="geometry" />
        </mxCell>
        <mxCell id="lqSc25_AbHQCDXwH0Ops-3" value="Nom de Service : VarChar (250 )&amp;nbsp;" style="text;strokeColor=none;fillColor=none;align=left;verticalAlign=top;spacingLeft=4;spacingRight=4;overflow=hidden;rotatable=0;points=[[0,0.5],[1,0.5]];portConstraint=eastwest;whiteSpace=wrap;html=1;" vertex="1" parent="lqSc25_AbHQCDXwH0Ops-1">
          <mxGeometry y="52" width="200" height="28" as="geometry" />
        </mxCell>
        <mxCell id="lqSc25_AbHQCDXwH0Ops-4" value="Chambre" style="swimlane;fontStyle=0;childLayout=stackLayout;horizontal=1;startSize=26;fillColor=none;horizontalStack=0;resizeParent=1;resizeParentMax=0;resizeLast=0;collapsible=1;marginBottom=0;whiteSpace=wrap;html=1;" vertex="1" parent="1">
          <mxGeometry x="480" y="170" width="200" height="104" as="geometry" />
        </mxCell>
        <mxCell id="lqSc25_AbHQCDXwH0Ops-5" value="&lt;u&gt;-id_Chambre&lt;/u&gt;&amp;nbsp;: Auto_Increment" style="text;strokeColor=none;fillColor=none;align=left;verticalAlign=top;spacingLeft=4;spacingRight=4;overflow=hidden;rotatable=0;points=[[0,0.5],[1,0.5]];portConstraint=eastwest;whiteSpace=wrap;html=1;" vertex="1" parent="lqSc25_AbHQCDXwH0Ops-4">
          <mxGeometry y="26" width="200" height="26" as="geometry" />
        </mxCell>
        <mxCell id="lqSc25_AbHQCDXwH0Ops-6" value="-Numéro de Chambre :&amp;nbsp; int&amp;nbsp;" style="text;strokeColor=none;fillColor=none;align=left;verticalAlign=top;spacingLeft=4;spacingRight=4;overflow=hidden;rotatable=0;points=[[0,0.5],[1,0.5]];portConstraint=eastwest;whiteSpace=wrap;html=1;" vertex="1" parent="lqSc25_AbHQCDXwH0Ops-4">
          <mxGeometry y="52" width="200" height="26" as="geometry" />
        </mxCell>
        <mxCell id="lqSc25_AbHQCDXwH0Ops-7" value="&lt;b&gt;&lt;font color=&quot;#7ea6e0&quot;&gt;#id_Service&lt;/font&gt;&lt;/b&gt;" style="text;strokeColor=none;fillColor=none;align=left;verticalAlign=top;spacingLeft=4;spacingRight=4;overflow=hidden;rotatable=0;points=[[0,0.5],[1,0.5]];portConstraint=eastwest;whiteSpace=wrap;html=1;" vertex="1" parent="lqSc25_AbHQCDXwH0Ops-4">
          <mxGeometry y="78" width="200" height="26" as="geometry" />
        </mxCell>
        <mxCell id="lqSc25_AbHQCDXwH0Ops-8" value="Lit" style="swimlane;fontStyle=0;childLayout=stackLayout;horizontal=1;startSize=26;fillColor=none;horizontalStack=0;resizeParent=1;resizeParentMax=0;resizeLast=0;collapsible=1;marginBottom=0;whiteSpace=wrap;html=1;" vertex="1" parent="1">
          <mxGeometry x="480" y="400" width="200" height="78" as="geometry" />
        </mxCell>
        <mxCell id="lqSc25_AbHQCDXwH0Ops-9" value="&lt;u&gt;-id_Lit&amp;nbsp;&lt;/u&gt;&amp;nbsp;: Auto_Increment" style="text;strokeColor=none;fillColor=none;align=left;verticalAlign=top;spacingLeft=4;spacingRight=4;overflow=hidden;rotatable=0;points=[[0,0.5],[1,0.5]];portConstraint=eastwest;whiteSpace=wrap;html=1;" vertex="1" parent="lqSc25_AbHQCDXwH0Ops-8">
          <mxGeometry y="26" width="200" height="26" as="geometry" />
        </mxCell>
        <mxCell id="lqSc25_AbHQCDXwH0Ops-10" value="- Disponibilité :Booléan" style="text;strokeColor=none;fillColor=none;align=left;verticalAlign=top;spacingLeft=4;spacingRight=4;overflow=hidden;rotatable=0;points=[[0,0.5],[1,0.5]];portConstraint=eastwest;whiteSpace=wrap;html=1;" vertex="1" parent="lqSc25_AbHQCDXwH0Ops-8">
          <mxGeometry y="52" width="200" height="26" as="geometry" />
        </mxCell>
        <mxCell id="lqSc25_AbHQCDXwH0Ops-11" value="1,N" style="text;html=1;align=center;verticalAlign=middle;whiteSpace=wrap;rounded=0;" vertex="1" parent="1">
          <mxGeometry x="510" width="60" height="30" as="geometry" />
        </mxCell>
        <mxCell id="lqSc25_AbHQCDXwH0Ops-12" value="1,1" style="text;html=1;align=center;verticalAlign=middle;whiteSpace=wrap;rounded=0;" vertex="1" parent="1">
          <mxGeometry x="580" y="130" width="60" height="30" as="geometry" />
        </mxCell>
        <mxCell id="lqSc25_AbHQCDXwH0Ops-13" value="1,1" style="text;html=1;align=center;verticalAlign=middle;whiteSpace=wrap;rounded=0;" vertex="1" parent="1">
          <mxGeometry x="580" y="370" width="60" height="30" as="geometry" />
        </mxCell>
        <mxCell id="lqSc25_AbHQCDXwH0Ops-14" value="1,1" style="text;html=1;align=center;verticalAlign=middle;whiteSpace=wrap;rounded=0;" vertex="1" parent="1">
          <mxGeometry x="510" y="274" width="60" height="30" as="geometry" />
        </mxCell>
        <mxCell id="lqSc25_AbHQCDXwH0Ops-15" value="Patient&lt;div&gt;&lt;br&gt;&lt;/div&gt;" style="swimlane;fontStyle=1;align=center;verticalAlign=top;childLayout=stackLayout;horizontal=1;startSize=26;horizontalStack=0;resizeParent=1;resizeParentMax=0;resizeLast=0;collapsible=1;marginBottom=0;whiteSpace=wrap;html=1;" vertex="1" parent="1">
          <mxGeometry x="-50" y="240" width="160" height="198" as="geometry" />
        </mxCell>
        <mxCell id="lqSc25_AbHQCDXwH0Ops-16" value="&lt;u&gt;-id_Patient:&lt;/u&gt;&amp;nbsp;Auto_Increment" style="text;strokeColor=none;fillColor=none;align=left;verticalAlign=top;spacingLeft=4;spacingRight=4;overflow=hidden;rotatable=0;points=[[0,0.5],[1,0.5]];portConstraint=eastwest;whiteSpace=wrap;html=1;" vertex="1" parent="lqSc25_AbHQCDXwH0Ops-15">
          <mxGeometry y="26" width="160" height="26" as="geometry" />
        </mxCell>
        <mxCell id="lqSc25_AbHQCDXwH0Ops-17" value="-Nom : VarChar(50)&lt;div&gt;&lt;br&gt;&lt;/div&gt;" style="text;strokeColor=none;fillColor=none;align=left;verticalAlign=top;spacingLeft=4;spacingRight=4;overflow=hidden;rotatable=0;points=[[0,0.5],[1,0.5]];portConstraint=eastwest;whiteSpace=wrap;html=1;" vertex="1" parent="lqSc25_AbHQCDXwH0Ops-15">
          <mxGeometry y="52" width="160" height="28" as="geometry" />
        </mxCell>
        <mxCell id="lqSc25_AbHQCDXwH0Ops-18" value="&lt;div&gt;&lt;div&gt;-Prénom : VarChar(50)&lt;/div&gt;&lt;/div&gt;&lt;div&gt;&lt;br&gt;&lt;/div&gt;" style="text;strokeColor=none;fillColor=none;align=left;verticalAlign=top;spacingLeft=4;spacingRight=4;overflow=hidden;rotatable=0;points=[[0,0.5],[1,0.5]];portConstraint=eastwest;whiteSpace=wrap;html=1;" vertex="1" parent="lqSc25_AbHQCDXwH0Ops-15">
          <mxGeometry y="80" width="160" height="26" as="geometry" />
        </mxCell>
        <mxCell id="lqSc25_AbHQCDXwH0Ops-19" value="-Numero sécurité social :&amp;nbsp;&lt;br&gt;Int (13)&amp;nbsp;&lt;br&gt;&lt;div&gt;&lt;br&gt;&lt;/div&gt;" style="text;strokeColor=none;fillColor=none;align=left;verticalAlign=top;spacingLeft=4;spacingRight=4;overflow=hidden;rotatable=0;points=[[0,0.5],[1,0.5]];portConstraint=eastwest;whiteSpace=wrap;html=1;" vertex="1" parent="lqSc25_AbHQCDXwH0Ops-15">
          <mxGeometry y="106" width="160" height="44" as="geometry" />
        </mxCell>
        <mxCell id="lqSc25_AbHQCDXwH0Ops-20" value="&lt;div&gt;&lt;div&gt;-Entrée : Date&lt;/div&gt;&lt;/div&gt;" style="text;strokeColor=none;fillColor=none;align=left;verticalAlign=top;spacingLeft=4;spacingRight=4;overflow=hidden;rotatable=0;points=[[0,0.5],[1,0.5]];portConstraint=eastwest;whiteSpace=wrap;html=1;" vertex="1" parent="lqSc25_AbHQCDXwH0Ops-15">
          <mxGeometry y="150" width="160" height="26" as="geometry" />
        </mxCell>
        <mxCell id="lqSc25_AbHQCDXwH0Ops-21" value="&lt;div&gt;&lt;div&gt;-Sortie : Date&lt;/div&gt;&lt;/div&gt;" style="text;strokeColor=none;fillColor=none;align=left;verticalAlign=top;spacingLeft=4;spacingRight=4;overflow=hidden;rotatable=0;points=[[0,0.5],[1,0.5]];portConstraint=eastwest;whiteSpace=wrap;html=1;" vertex="1" parent="lqSc25_AbHQCDXwH0Ops-15">
          <mxGeometry y="176" width="160" height="22" as="geometry" />
        </mxCell>
        <mxCell id="lqSc25_AbHQCDXwH0Ops-22" value="0,1" style="text;html=1;align=center;verticalAlign=middle;resizable=0;points=[];autosize=1;strokeColor=none;fillColor=none;" vertex="1" parent="1">
          <mxGeometry x="380" y="410" width="40" height="30" as="geometry" />
        </mxCell>
        <mxCell id="lqSc25_AbHQCDXwH0Ops-23" value="1,1" style="text;html=1;align=center;verticalAlign=middle;resizable=0;points=[];autosize=1;strokeColor=none;fillColor=none;" vertex="1" parent="1">
          <mxGeometry x="140" y="340" width="40" height="30" as="geometry" />
        </mxCell>
        <mxCell id="lqSc25_AbHQCDXwH0Ops-24" style="edgeStyle=orthogonalEdgeStyle;rounded=0;orthogonalLoop=1;jettySize=auto;html=1;entryX=0.5;entryY=0;entryDx=0;entryDy=0;startArrow=classic;startFill=1;" edge="1" parent="1" target="lqSc25_AbHQCDXwH0Ops-8">
          <mxGeometry relative="1" as="geometry">
            <mxPoint x="580" y="270" as="sourcePoint" />
          </mxGeometry>
        </mxCell>
        <mxCell id="lqSc25_AbHQCDXwH0Ops-25" style="edgeStyle=orthogonalEdgeStyle;rounded=0;orthogonalLoop=1;jettySize=auto;html=1;entryX=0.5;entryY=0;entryDx=0;entryDy=0;startArrow=classic;startFill=1;exitX=0.497;exitY=1.1;exitDx=0;exitDy=0;exitPerimeter=0;" edge="1" parent="1" source="lqSc25_AbHQCDXwH0Ops-3" target="lqSc25_AbHQCDXwH0Ops-4">
          <mxGeometry relative="1" as="geometry">
            <Array as="points">
              <mxPoint x="579" y="10" />
              <mxPoint x="580" y="10" />
            </Array>
            <mxPoint x="570" y="10" as="sourcePoint" />
          </mxGeometry>
        </mxCell>
        <mxCell id="lqSc25_AbHQCDXwH0Ops-26" style="edgeStyle=orthogonalEdgeStyle;rounded=0;orthogonalLoop=1;jettySize=auto;html=1;entryX=0;entryY=0.5;entryDx=0;entryDy=0;startArrow=classic;startFill=1;" edge="1" parent="1" source="lqSc25_AbHQCDXwH0Ops-20" target="lqSc25_AbHQCDXwH0Ops-9">
          <mxGeometry relative="1" as="geometry" />
        </mxCell>
      </root>
    </mxGraphModel>
  </diagram>
</mxfile>
